<svg width="434" height="96" viewBox="0 0 434 96" fill="none" xmlns="http://www.w3.org/2000/svg">
<g filter="url(#filter0_d_59_1057)">
<path fill-rule="evenodd" clip-rule="evenodd" d="M312.911 18.014C312.892 18.1351 312.876 18.2409 312.864 18.3299C306.968 18.6252 303.236 22.1224 301.001 25.5292C299.834 27.3076 299.059 29.0795 298.577 30.4036C298.335 31.067 298.165 31.6216 298.055 32.0132C298.01 32.1713 297.975 32.3031 297.95 32.4049H37.7503C37.7503 32.4049 28.359 32.4051 23.654 32.4049C15.5805 32.4046 8.28442 38.3844 8.28442 45.2185C8.28442 51.8919 13.579 58.1575 19.3895 58.8463V58.899H19.9929C25.3827 59.2619 35.3218 58.966 37.3738 58.899H341.745C341.745 58.899 344.89 58.899 346.675 58.8863H346.918C352.664 58.9425 358.243 63.0698 358.414 69.9911C358.565 76.1397 353.823 81.9504 349.903 81.9504H341.745H174.861L172.298 83.6589H341.745C341.745 83.6589 353.051 84.086 356.641 83.6589C360.23 83.2318 366.21 76.8252 366.21 69.9911C366.21 63.157 360.152 57.1772 353.449 57.1775C349.542 57.1777 341.745 57.1775 341.745 57.1775H27.9132C24.0665 57.1588 17.4919 51.3571 17.6744 45.2185C17.8826 38.214 24.7618 34.071 31.7693 34.1134C33.9114 34.1264 37.7503 34.1264 37.7503 34.1264L423.444 34.1132L426 32.4049H356.742C356.72 32.307 356.692 32.1842 356.656 32.039C356.559 31.6476 356.408 31.0932 356.19 30.4299C355.756 29.1062 355.05 27.3334 353.966 25.5534C351.892 22.1502 348.369 18.6376 342.675 18.3313C342.663 18.2421 342.647 18.1358 342.627 18.014C342.564 17.6196 342.459 17.0616 342.292 16.3941C341.96 15.0626 341.375 13.2776 340.366 11.4842C338.333 7.86923 334.558 4.21484 327.769 4.21484C320.98 4.21484 317.206 7.86923 315.172 11.4842C314.163 13.2776 313.579 15.0626 313.246 16.3941C313.079 17.0616 312.974 17.6196 312.911 18.014ZM302.21 32.4049H299.719C299.82 32.0533 299.971 31.5669 300.182 30.9888C300.633 29.7501 301.354 28.1051 302.429 26.4666C304.577 23.193 308.082 20.0182 313.674 20.0182C319.255 20.0182 322.54 23.1795 324.472 26.434C325.441 28.0666 326.057 29.7068 326.431 30.9432C326.549 31.3346 326.643 31.6838 326.715 31.9775H325.039C324.972 31.7048 324.879 31.3639 324.756 30.9738C324.44 29.9684 323.919 28.6199 323.098 27.264C321.451 24.5435 318.544 21.7268 313.674 21.7267C308.805 21.7267 305.898 24.5434 304.251 27.264C303.43 28.6198 302.908 29.9684 302.592 30.9737C302.434 31.478 302.325 31.8999 302.256 32.1987C302.238 32.2758 302.223 32.3447 302.21 32.4049ZM305.618 32.4049H303.963C304.024 32.1604 304.108 31.8478 304.222 31.4864C304.51 30.5697 304.981 29.3556 305.712 28.1488C307.168 25.7439 309.6 23.4352 313.674 23.4352C317.749 23.4352 320.181 25.7439 321.637 28.1488C322.367 29.3556 322.838 30.5698 323.127 31.4864C323.182 31.6624 323.231 31.8269 323.273 31.9775H322.027C321.984 31.8316 321.932 31.6665 321.87 31.4863C321.634 30.7987 321.245 29.8756 320.635 28.9462C319.405 27.072 317.245 25.1437 313.674 25.1437C310.094 25.1437 308.032 27.0834 306.907 28.9787C306.351 29.9146 306.019 30.8429 305.825 31.5327C305.727 31.8792 305.663 32.1699 305.624 32.3771L305.618 32.4049ZM309.047 32.4049H307.364C307.392 32.2841 307.427 32.1464 307.469 31.9953C307.636 31.4037 307.917 30.6235 308.376 29.851C309.279 28.3293 310.848 26.8521 313.674 26.8522C316.51 26.8522 318.194 28.3408 319.207 29.8836C319.7 30.6348 320.026 31.392 320.232 31.9775H317.673C317.525 31.656 317.296 31.2344 316.962 30.8091C316.261 29.9168 315.073 28.9877 313.247 28.9877C311.403 28.9877 310.302 29.9365 309.699 30.8749C309.406 31.3307 309.23 31.78 309.128 32.112C309.094 32.222 309.067 32.3208 309.047 32.4049ZM337.663 32.4049H335.574C335.605 32.2894 335.642 32.1592 335.686 32.0172C335.871 31.4227 336.174 30.6379 336.649 29.8604C337.591 28.3196 339.166 26.8522 341.864 26.8522C344.573 26.8521 346.262 28.3318 347.313 29.8921C347.816 30.6392 348.162 31.3918 348.386 31.9775H345.94C345.834 31.6637 345.667 31.2717 345.412 30.8749C344.809 29.9366 343.708 28.9878 341.864 28.9878C340.02 28.9878 338.919 29.9366 338.316 30.8749C338.023 31.3307 337.847 31.78 337.745 32.112C337.711 32.222 337.684 32.3208 337.663 32.4049ZM343.975 31.7988C344.109 32.0068 344.207 32.218 344.278 32.4049H339.45C339.521 32.218 339.619 32.0068 339.753 31.7988C340.111 31.2423 340.718 30.6962 341.864 30.6962C343.01 30.6962 343.617 31.2423 343.975 31.7988ZM351.525 32.4049H350.325C350.316 32.3735 350.307 32.3394 350.296 32.3026C350.237 32.0973 350.147 31.8091 350.019 31.4655C349.764 30.781 349.353 29.8623 348.73 28.9375C347.479 27.0809 345.324 25.1437 341.864 25.1437C338.394 25.1437 336.338 27.0932 335.192 28.9694C334.623 29.9003 334.268 30.8239 334.054 31.5108C334.002 31.681 333.957 31.8377 333.92 31.9775H332.349C332.397 31.8402 332.451 31.6921 332.511 31.5349C332.864 30.6115 333.413 29.3874 334.2 28.1698C335.782 25.7202 338.224 23.4352 341.864 23.4352C345.505 23.4352 347.947 25.7202 349.529 28.1698C350.315 29.3874 350.864 30.6115 351.217 31.5349C351.346 31.872 351.448 32.1672 351.525 32.4049ZM354.986 32.4049H353.311C353.291 32.3329 353.265 32.2443 353.233 32.1409C353.142 31.8448 353.004 31.426 352.813 30.9253C352.431 29.9266 351.833 28.5881 350.964 27.2429C349.236 24.5671 346.339 21.7267 341.864 21.7267C337.389 21.7267 334.492 24.5671 332.764 27.2429C331.896 28.5881 331.297 29.9266 330.915 30.9253C330.757 31.3399 330.635 31.6984 330.546 31.9775H328.855C328.935 31.6876 329.036 31.3451 329.161 30.9625C329.568 29.7235 330.224 28.0793 331.222 26.4424C333.216 23.1703 336.505 20.0182 341.864 20.0182C347.223 20.0182 350.513 23.1703 352.507 26.4424C353.504 28.0793 354.16 29.7235 354.567 30.9625C354.761 31.555 354.897 32.0512 354.986 32.4049ZM340.941 18.2851L340.949 18.3373C340.485 18.3656 340.036 18.4152 339.601 18.4843C339.527 18.1756 339.413 17.7459 339.249 17.2347C338.914 16.19 338.365 14.7892 337.508 13.381C335.79 10.5584 332.778 7.63179 327.769 7.63179C322.76 7.63179 319.748 10.5584 318.031 13.381C317.174 14.7892 316.625 16.19 316.29 17.2347C316.128 17.7401 316.015 18.1658 315.94 18.4737C315.505 18.4087 315.055 18.3621 314.59 18.3356L314.598 18.2851C314.655 17.9321 314.75 17.4224 314.903 16.8085C315.211 15.5773 315.748 13.9453 316.661 12.3218C318.472 9.10283 321.745 5.92332 327.769 5.92332C333.794 5.92332 337.067 9.10283 338.877 12.3218C339.79 13.9453 340.327 15.5773 340.635 16.8085C340.788 17.4224 340.884 17.9321 340.941 18.2851ZM337.622 17.7564C337.767 18.2094 337.868 18.5892 337.934 18.8607C337.459 19.0013 337.004 19.1661 336.568 19.3522C336.539 19.2154 336.506 19.0674 336.468 18.9099C336.263 18.0639 335.909 16.925 335.306 15.7771C334.094 13.4676 331.822 11.0487 327.769 11.0487C323.716 11.0487 321.445 13.4676 320.232 15.7771C319.63 16.925 319.275 18.0639 319.071 18.9099C319.038 19.0464 319.008 19.1757 318.983 19.2968C318.545 19.1197 318.088 18.9631 317.612 18.8297C317.678 18.5606 317.777 18.1924 317.917 17.7564C318.224 16.799 318.723 15.5304 319.49 14.269C321.021 11.7526 323.561 9.34027 327.769 9.34027C331.977 9.34027 334.517 11.7526 336.048 14.269C336.816 15.5304 337.315 16.799 337.622 17.7564ZM334.807 19.3113C334.891 19.659 334.947 19.9517 334.982 20.1637C334.028 20.7389 333.181 21.4172 332.43 22.1538C332.728 21.5037 332.895 20.7803 332.895 20.0182C332.895 17.1875 330.6 14.8927 327.769 14.8927C324.939 14.8927 322.644 17.1875 322.644 20.0182C322.644 20.6645 322.763 21.2829 322.982 21.8524C322.268 21.1929 321.468 20.5881 320.572 20.0719C320.607 19.8703 320.659 19.6113 320.731 19.3113C320.914 18.5557 321.227 17.5589 321.745 16.5712C322.775 14.6095 324.561 12.7572 327.769 12.7572C330.977 12.7572 332.763 14.6095 333.793 16.5712C334.312 17.5589 334.625 18.5557 334.807 19.3113ZM325.249 24.4819C325.497 24.8402 325.727 25.2015 325.941 25.5618C326.799 27.0076 327.399 28.4485 327.809 29.6487C328.248 28.4474 328.879 27.0028 329.763 25.5534C330.019 25.1323 330.298 24.7096 330.6 24.2914C329.789 24.8299 328.816 25.1436 327.769 25.1436C326.853 25.1436 325.993 24.9031 325.249 24.4819ZM315.704 31.9775C315.677 31.9399 315.648 31.9023 315.619 31.8646C315.145 31.262 314.411 30.6962 313.247 30.6962C312.101 30.6962 311.494 31.2423 311.136 31.7988C311.098 31.8583 311.062 31.9181 311.03 31.9775H315.704ZM324.352 20.0182C324.352 18.131 325.882 16.6012 327.769 16.6012C329.656 16.6012 331.186 18.131 331.186 20.0182C331.186 21.9053 329.656 23.4351 327.769 23.4351C325.882 23.4351 324.352 21.9053 324.352 20.0182Z" fill="#C9AC7C"/>
</g>
<defs>
<filter id="filter0_d_59_1057" x="0.327936" y="0.2366" width="433.629" height="95.5468" filterUnits="userSpaceOnUse" color-interpolation-filters="sRGB">
<feFlood flood-opacity="0" result="BackgroundImageFix"/>
<feColorMatrix in="SourceAlpha" type="matrix" values="0 0 0 0 0 0 0 0 0 0 0 0 0 0 0 0 0 0 127 0" result="hardAlpha"/>
<feOffset dy="3.97824"/>
<feGaussianBlur stdDeviation="3.97824"/>
<feComposite in2="hardAlpha" operator="out"/>
<feColorMatrix type="matrix" values="0 0 0 0 0 0 0 0 0 0 0 0 0 0 0 0 0 0 0.38 0"/>
<feBlend mode="normal" in2="BackgroundImageFix" result="effect1_dropShadow_59_1057"/>
<feBlend mode="normal" in="SourceGraphic" in2="effect1_dropShadow_59_1057" result="shape"/>
</filter>
</defs>
</svg>
