<svg width="434" height="96" viewBox="0 0 434 96" fill="none" xmlns="http://www.w3.org/2000/svg">
<g filter="url(#filter0_d_59_1064)">
<path fill-rule="evenodd" clip-rule="evenodd" d="M121.089 18.014C121.108 18.1351 121.124 18.2409 121.136 18.3299C127.032 18.6252 130.764 22.1224 132.999 25.5292C134.166 27.3076 134.941 29.0795 135.423 30.4036C135.665 31.067 135.835 31.6216 135.945 32.0132C135.99 32.1713 136.025 32.3031 136.051 32.4049H396.25C396.25 32.4049 405.641 32.4051 410.346 32.4049C418.42 32.4046 425.716 38.3844 425.716 45.2185C425.716 51.892 420.421 58.1576 414.61 58.8463V58.899H414.007C408.617 59.2619 398.678 58.966 396.626 58.899H92.2549C92.2549 58.899 89.1103 58.899 87.325 58.8863H87.0816C81.3358 58.9425 75.7571 63.0698 75.5863 69.9911C75.4345 76.1397 80.1764 81.9504 84.0973 81.9504H92.2549H259.139L261.702 83.6589H92.2549C92.2549 83.6589 80.9492 84.086 77.3594 83.6589C73.7697 83.2318 67.79 76.8252 67.79 69.9911C67.79 63.157 73.8477 57.1772 80.5511 57.1775C84.4575 57.1777 92.2549 57.1775 92.2549 57.1775H406.087C409.934 57.1588 416.508 51.3571 416.326 45.2185C416.117 38.214 409.238 34.071 402.231 34.1134C400.089 34.1264 396.25 34.1264 396.25 34.1264L10.5562 34.1132L7.99997 32.4049H77.258C77.2799 32.307 77.3085 32.1842 77.3445 32.039C77.4414 31.6476 77.5923 31.0932 77.8099 30.4299C78.2443 29.1062 78.9497 27.3334 80.0344 25.5534C82.1082 22.1502 85.631 18.6376 91.325 18.3313C91.3373 18.2421 91.3529 18.1358 91.3725 18.014C91.4359 17.6196 91.5407 17.0616 91.7076 16.3941C92.0404 15.0626 92.6249 13.2776 93.6337 11.4842C95.6671 7.86923 99.4417 4.21484 106.231 4.21484C113.02 4.21484 116.794 7.86923 118.828 11.4842C119.837 13.2776 120.421 15.0626 120.754 16.3941C120.921 17.0616 121.026 17.6196 121.089 18.014ZM131.79 32.4049H134.281C134.18 32.0533 134.029 31.5669 133.818 30.9888C133.367 29.7501 132.646 28.1051 131.571 26.4666C129.423 23.193 125.918 20.0182 120.326 20.0182C114.745 20.0182 111.46 23.1795 109.528 26.434C108.559 28.0666 107.943 29.7068 107.569 30.9432C107.451 31.3346 107.357 31.6838 107.285 31.9775H108.961C109.028 31.7048 109.121 31.3639 109.244 30.9738C109.56 29.9684 110.081 28.6199 110.902 27.264C112.549 24.5435 115.456 21.7268 120.326 21.7267C125.196 21.7267 128.102 24.5434 129.75 27.264C130.57 28.6198 131.092 29.9684 131.408 30.9737C131.567 31.478 131.675 31.8999 131.744 32.1987C131.752 32.2315 131.759 32.2629 131.765 32.2927C131.77 32.3154 131.775 32.3373 131.78 32.3582L131.79 32.4049ZM128.382 32.4049H130.037C129.976 32.1604 129.892 31.8478 129.778 31.4864C129.49 30.5697 129.019 29.3556 128.288 28.1488C126.832 25.7439 124.4 23.4352 120.326 23.4352C116.251 23.4352 113.819 25.7439 112.363 28.1488C111.633 29.3556 111.162 30.5698 110.873 31.4864C110.818 31.6624 110.77 31.8269 110.727 31.9775H111.973C112.016 31.8316 112.068 31.6665 112.13 31.4863C112.366 30.7987 112.755 29.8756 113.365 28.9462C114.595 27.072 116.755 25.1437 120.326 25.1437C123.906 25.1437 125.968 27.0834 127.093 28.9787C127.649 29.9146 127.982 30.8429 128.176 31.5327C128.273 31.8792 128.337 32.1699 128.376 32.3771L128.382 32.4049ZM124.954 32.4049H126.636C126.608 32.2841 126.573 32.1464 126.531 31.9953C126.365 31.4037 126.083 30.6235 125.624 29.851C124.721 28.3293 123.152 26.8521 120.326 26.8522C117.49 26.8522 115.806 28.3408 114.793 29.8836C114.3 30.6348 113.974 31.392 113.768 31.9775H116.327C116.475 31.656 116.704 31.2344 117.038 30.8091C117.739 29.9168 118.927 28.9877 120.753 28.9877C122.597 28.9877 123.698 29.9365 124.301 30.8749C124.594 31.3307 124.77 31.78 124.872 32.112C124.906 32.222 124.933 32.3208 124.954 32.4049ZM96.3366 32.4049H98.4257C98.395 32.2894 98.358 32.1592 98.3139 32.0172C98.1294 31.4227 97.8258 30.6379 97.3506 29.8604C96.4088 28.3196 94.8337 26.8522 92.1359 26.8522C89.4274 26.8521 87.7385 28.3318 86.6873 29.8921C86.1839 30.6392 85.8381 31.3918 85.6141 31.9775H88.06C88.1665 31.6637 88.3326 31.2717 88.5877 30.8749C89.1909 29.9366 90.2919 28.9878 92.1359 28.9878C93.9799 28.9878 95.0809 29.9366 95.6841 30.8749C95.9771 31.3307 96.1527 31.78 96.2555 32.112C96.2895 32.222 96.3161 32.3208 96.3366 32.4049ZM90.0248 31.7988C89.8911 32.0068 89.7928 32.218 89.7216 32.4049H94.5502C94.4791 32.218 94.3807 32.0068 94.247 31.7988C93.8893 31.2423 93.2818 30.6962 92.1359 30.6962C90.9901 30.6962 90.3826 31.2423 90.0248 31.7988ZM82.4754 32.4049H83.6753C83.6839 32.3735 83.6935 32.3394 83.704 32.3026C83.7629 32.0973 83.8531 31.8091 83.9812 31.4655C84.2365 30.781 84.6473 29.8623 85.2704 28.9375C86.5212 27.0809 88.6764 25.1437 92.1359 25.1437C95.6062 25.1437 97.6616 27.0932 98.8083 28.9694C99.3773 29.9003 99.7325 30.8239 99.9456 31.5108C99.9985 31.681 100.043 31.8377 100.08 31.9775H101.651C101.603 31.8402 101.549 31.6921 101.489 31.5349C101.136 30.6115 100.587 29.3874 99.8005 28.1698C98.2185 25.7202 95.7764 23.4352 92.1359 23.4352C88.4954 23.4352 86.0533 25.7202 84.4713 28.1698C83.685 29.3874 83.1358 30.6115 82.7832 31.5349C82.6544 31.872 82.5525 32.1672 82.4754 32.4049ZM79.014 32.4049H80.689C80.7095 32.3329 80.7355 32.2443 80.7672 32.1409C80.858 31.8448 80.9959 31.426 81.1872 30.9253C81.5686 29.9266 82.1674 28.5881 83.0361 27.2429C84.7642 24.5671 87.6612 21.7267 92.1359 21.7267C96.6107 21.7267 99.5076 24.5671 101.236 27.2429C102.104 28.5881 102.703 29.9266 103.085 30.9253C103.243 31.3399 103.365 31.6984 103.454 31.9775H105.145C105.065 31.6876 104.964 31.3451 104.839 30.9625C104.432 29.7235 103.776 28.0793 102.778 26.4424C100.785 23.1703 97.495 20.0182 92.1359 20.0182C86.7769 20.0182 83.4873 23.1703 81.4933 26.4424C80.4958 28.0793 79.8398 29.7235 79.4333 30.9625C79.2389 31.555 79.1026 32.0512 79.014 32.4049ZM93.0594 18.2851L93.0511 18.3373C93.5149 18.3656 93.9641 18.4152 94.3993 18.4843C94.4735 18.1756 94.5874 17.7459 94.7513 17.2347C95.0863 16.19 95.6354 14.7892 96.4922 13.381C98.2095 10.5584 101.222 7.63179 106.231 7.63179C111.24 7.63179 114.252 10.5584 115.969 13.381C116.826 14.7892 117.375 16.19 117.71 17.2347C117.872 17.7401 117.985 18.1658 118.06 18.4738C118.495 18.4087 118.945 18.3621 119.41 18.3356L119.402 18.2851C119.345 17.9321 119.25 17.4224 119.097 16.8085C118.789 15.5773 118.252 13.9453 117.339 12.3218C115.528 9.10283 112.255 5.92332 106.231 5.92332C100.206 5.92332 96.9334 9.10283 95.1227 12.3218C94.2095 13.9453 93.6728 15.5773 93.365 16.8085C93.2115 17.4224 93.1161 17.9321 93.0594 18.2851ZM96.3782 17.7564C96.2329 18.2094 96.1317 18.5892 96.066 18.8607C96.5406 19.0013 96.9958 19.1661 97.4325 19.3522C97.461 19.2154 97.494 19.0674 97.5321 18.9099C97.7366 18.0639 98.0912 16.925 98.6939 15.7771C99.9064 13.4676 102.178 11.0487 106.231 11.0487C110.284 11.0487 112.555 13.4676 113.768 15.7771C114.37 16.925 114.725 18.0639 114.929 18.9099C114.962 19.0464 114.992 19.1757 115.017 19.2968C115.455 19.1197 115.912 18.9631 116.388 18.8297C116.322 18.5606 116.223 18.1924 116.083 17.7564C115.776 16.799 115.277 15.5304 114.51 14.269C112.979 11.7526 110.439 9.34027 106.231 9.34027C102.023 9.34027 99.4827 11.7526 97.9517 14.269C97.1843 15.5304 96.6852 16.799 96.3782 17.7564ZM99.1928 19.3113C99.1087 19.659 99.0532 19.9517 99.018 20.1637C99.9716 20.7388 100.819 21.4171 101.57 22.1537C101.272 21.5036 101.105 20.7803 101.105 20.0182C101.105 17.1875 103.4 14.8927 106.231 14.8927C109.061 14.8927 111.356 17.1875 111.356 20.0182C111.356 20.6645 111.237 21.2829 111.018 21.8524C111.732 21.193 112.532 20.5881 113.428 20.072C113.393 19.8704 113.341 19.6113 113.269 19.3113C113.086 18.5557 112.773 17.5589 112.255 16.5712C111.225 14.6095 109.439 12.7572 106.231 12.7572C103.023 12.7572 101.237 14.6095 100.207 16.5712C99.6881 17.5589 99.3754 18.5557 99.1928 19.3113ZM108.752 24.4819C108.503 24.8402 108.273 25.2015 108.059 25.5618C107.201 27.0076 106.601 28.4485 106.191 29.6487C105.752 28.4474 105.121 27.0028 104.237 25.5534C103.981 25.1323 103.702 24.7096 103.4 24.2915C104.211 24.8299 105.184 25.1436 106.231 25.1436C107.147 25.1436 108.007 24.9031 108.752 24.4819ZM118.296 31.9775C118.323 31.9399 118.352 31.9023 118.381 31.8646C118.855 31.262 119.589 30.6962 120.753 30.6962C121.899 30.6962 122.506 31.2423 122.864 31.7988C122.902 31.8583 122.938 31.9181 122.97 31.9775H118.296ZM109.648 20.0182C109.648 18.131 108.118 16.6012 106.231 16.6012C104.344 16.6012 102.814 18.131 102.814 20.0182C102.814 21.9053 104.344 23.4351 106.231 23.4351C108.118 23.4351 109.648 21.9053 109.648 20.0182Z" fill="#C9AC7C"/>
</g>
<defs>
<filter id="filter0_d_59_1064" x="0.0435123" y="0.2366" width="433.629" height="95.5468" filterUnits="userSpaceOnUse" color-interpolation-filters="sRGB">
<feFlood flood-opacity="0" result="BackgroundImageFix"/>
<feColorMatrix in="SourceAlpha" type="matrix" values="0 0 0 0 0 0 0 0 0 0 0 0 0 0 0 0 0 0 127 0" result="hardAlpha"/>
<feOffset dy="3.97824"/>
<feGaussianBlur stdDeviation="3.97824"/>
<feComposite in2="hardAlpha" operator="out"/>
<feColorMatrix type="matrix" values="0 0 0 0 0 0 0 0 0 0 0 0 0 0 0 0 0 0 0.38 0"/>
<feBlend mode="normal" in2="BackgroundImageFix" result="effect1_dropShadow_59_1064"/>
<feBlend mode="normal" in="SourceGraphic" in2="effect1_dropShadow_59_1064" result="shape"/>
</filter>
</defs>
</svg>
