<svg width="879" height="213" viewBox="0 0 879 213" fill="none" xmlns="http://www.w3.org/2000/svg">
<path d="M474.454 161C479.184 161 488.627 161 488.627 161H879L876.43 162.718L488.627 162.731C488.627 162.731 484.767 162.731 482.613 162.718C475.568 162.675 468.651 166.841 468.441 173.884C468.258 180.066 474.89 185.908 478.755 185.908C482.62 185.908 488.627 185.908 488.627 185.908H804.704V187.626H488.627C488.627 187.626 476.594 188.056 470.589 187.626C464.583 187.197 459 180.755 459 173.884C459 167.012 466.336 161 474.454 161Z" fill="#C9AC7C"/>
<path d="M806.052 185.908C802.124 185.908 794.284 185.908 794.284 185.908H470.166V187.639H794.284C794.284 187.639 797.489 187.639 799.277 187.626C805.127 187.583 810.87 191.749 811.044 198.792C811.197 204.974 806.429 210.817 802.486 210.817C798.544 210.817 794.284 210.817 794.284 210.817H626.487L623.911 212.534H794.284C794.284 212.534 805.652 212.964 809.261 212.534C812.871 212.105 818.883 205.663 818.883 198.792C818.883 191.92 812.792 185.908 806.052 185.908Z" fill="#C9AC7C"/>
<path d="M15.4537 1.10453e-08C20.1844 0.000173425 29.627 1.10453e-08 29.627 1.10453e-08H420L417.43 1.71761L29.627 1.73085C29.627 1.73085 25.7672 1.73085 23.6133 1.71782C16.5675 1.67519 9.65063 5.84083 9.44129 12.8836C9.25753 19.0658 15.8898 24.9082 19.7549 24.9082C23.62 24.9082 29.627 24.9084 29.627 24.9084H345.704V26.6262H29.627C29.627 26.6262 17.5942 27.0558 11.5886 26.6262C5.58291 26.1965 0 19.7551 0 12.8836C0 6.01215 7.33594 -0.000297561 15.4537 1.10453e-08Z" fill="#C9AC7C"/>
<path d="M347.052 24.9082C343.124 24.9084 335.284 24.9082 335.284 24.9082H11.1658V26.6391H335.284C335.284 26.6391 338.489 26.6391 340.277 26.626C346.127 26.5834 351.87 30.749 352.044 37.7918C352.197 43.974 347.429 49.8166 343.486 49.8166C339.544 49.8166 335.284 49.8166 335.284 49.8166H167.487L164.911 51.5344H335.284C335.284 51.5344 346.652 51.9638 350.261 51.5344C353.871 51.1049 359.883 44.6633 359.883 37.7918C359.883 30.9204 353.792 24.9079 347.052 24.9082Z" fill="#C9AC7C"/>
<path d="M219.95 44.0041H577.862C577.862 44.0041 588.222 44.0041 596.45 54.5C604.677 64.9959 603.95 76.5041 603.95 76.5041C603.95 76.5041 617.95 74.647 625.95 81.5042C633.95 88.3613 639.03 95.8715 638.95 106.004C638.859 117.46 634.275 125.613 624.45 131.504C616.989 135.978 602.45 135.004 602.45 135.004C602.45 135.004 603.95 148.004 596.45 156.504C588.95 165.004 577.95 167.004 577.95 167.004H215.95C215.95 167.004 205.95 165.981 196.95 158.004C187.95 150.028 187.95 138.004 187.95 138.004C187.95 138.004 172.896 135.948 165.95 130.004C156.831 122.201 152.529 113.351 154.45 101.504C155.838 92.9427 159.361 88.1435 165.95 82.5041C172.948 76.5154 187.95 74.0041 187.95 74.0041C187.95 74.0041 187.45 63.5042 198.45 53.5042C209.45 43.5042 219.95 44.0041 219.95 44.0041Z" fill="#C9AC7C"/>
<path d="M223.005 47.0039H575.787C575.787 47.0039 585.999 47.0039 594.108 56.9875C602.218 66.971 601.501 77.9175 601.501 77.9175C601.501 77.9175 615.3 76.1511 623.185 82.6735C631.071 89.1959 636.078 96.3395 635.999 105.978C635.91 116.874 631.391 124.629 621.707 130.233C614.353 134.488 600.022 133.562 600.022 133.562C600.022 133.562 601.501 145.927 594.108 154.013C586.716 162.098 575.873 164 575.873 164H219.062C219.062 164 209.205 163.027 200.334 155.439C191.463 147.852 191.463 136.416 191.463 136.416C191.463 136.416 176.625 134.46 169.779 128.806C160.791 121.384 156.55 112.966 158.444 101.697C159.812 93.5537 163.284 88.9888 169.779 83.6246C176.676 77.9282 191.463 75.5396 191.463 75.5396C191.463 75.5396 190.971 65.5521 201.813 56.0402C212.655 46.5284 223.005 47.0039 223.005 47.0039Z" fill="#EDCA9D"/>
<path d="M227.796 50.0037H573.922C573.922 50.0037 583.942 50.0037 591.898 59.4753C599.855 68.9469 599 80.5505 599 80.5505C599 80.5505 613.263 78.4359 621 84.6239C628.736 90.8118 633.077 96.8093 632.999 105.953C632.911 116.291 628.478 123.648 618.976 128.965C611.761 133.002 597 131.468 597 131.468C597 131.468 599.253 145.183 592 152.853C584.747 160.524 574.008 161 574.008 161H223.927C223.927 161 214.257 160.076 205.553 152.878C196.849 145.68 196.849 134.83 196.849 134.83C196.849 134.83 180.717 133.364 174 128C165.181 120.958 159.433 113.136 161.29 102.445C163.148 91.754 168.129 87.9896 175.574 83.6055C183.019 79.2214 196.849 77.076 196.849 77.076C196.849 77.076 196.366 67.6007 207.003 58.5766C217.641 49.5525 227.796 50.0037 227.796 50.0037Z" fill="#C9AC7C"/>
<path d="M229.978 53.0035H571.678C571.678 53.0035 581.569 53.0035 589.424 61.9631C597.279 70.9227 597 83 597 83C597 83 610.516 79.8988 618.153 85.7523C625.791 91.6058 630.076 97.279 629.999 105.929C629.912 115.707 625.535 122.667 616.156 127.696C609.033 131.515 594.5 129 594.5 129C594.5 129 596.685 143.038 589.524 150.294C582.364 157.549 571.762 158 571.762 158H226.16C226.16 158 216.613 157.126 208.02 150.317C199.428 143.508 199.428 133.245 199.428 133.245C199.428 133.245 183.996 130.574 177.364 125.5C168.659 118.839 162.49 112.723 164.324 102.61C166.158 92.497 171.075 88.9361 178.424 84.789C185.774 80.6419 199.428 78.6124 199.428 78.6124C199.428 78.6124 198.951 69.6493 209.452 61.113C219.954 52.5767 229.978 53.0035 229.978 53.0035Z" fill="#EDCA9D"/>
<g filter="url(#filter0_i_43_167)">
<path d="M301.195 80.2389V129H291.781V101.775C291.781 100.691 291.849 99.0661 291.984 96.8989C292.12 94.7318 292.188 93.0387 292.188 91.9551H292.052L279.049 129H272.412L259.409 91.9551H259.274C259.274 93.0387 259.342 94.7318 259.477 96.8989C259.612 99.0661 259.68 100.691 259.68 101.775V129H250.267V80.2389H263.811L275.731 115.591L287.65 80.2389H301.195ZM358.349 104.484C358.349 111.663 355.843 117.758 350.967 122.634C346.091 127.51 340.064 129.948 333.02 129.948C325.909 129.948 319.882 127.51 315.006 122.499C310.13 117.555 307.692 111.527 307.692 104.484C307.692 97.4407 310.13 91.481 315.141 86.6049C320.153 81.7288 326.112 79.2907 333.088 79.2907C340.131 79.2907 346.159 81.7965 351.035 86.6726C355.911 91.5487 358.349 97.5084 358.349 104.484ZM348.461 104.416C348.461 100.082 346.904 96.3571 343.924 93.1064C340.944 89.9234 337.287 88.298 333.02 88.298C328.686 88.298 325.029 89.9234 322.049 93.1741C319.069 96.4249 317.579 100.15 317.579 104.484C317.579 108.954 319.069 112.814 322.049 116.065C325.029 119.315 328.686 120.941 333.02 120.941C337.558 120.941 341.283 119.315 344.262 115.997C347.039 112.814 348.461 108.954 348.461 104.416ZM403.352 129H357.977V120.196H362.04L375.314 80.2389H385.947L399.221 120.196H403.352V129ZM389.536 120.196L380.664 92.0905L371.725 120.196H389.536ZM441.777 80.2389L421.324 129H411.301L415.974 117.826L399.043 80.2389H409.337L420.647 106.245L431.55 80.2389H441.777ZM480.744 129H470.653L458.937 92.0228L447.221 129H437.062L453.587 80.2389H464.219L480.744 129ZM524.339 129H514.722V96.6958L493.118 129H484.788V80.2389H494.54V112.34L516.144 80.2389H524.339V129ZM543.296 103.671H534.288V93.9191H543.296V103.671ZM543.296 129H534.288V119.248H543.296V129Z" fill="#5C5740"/>
</g>
<path d="M234.918 148.164C234.918 148.164 235.649 140.851 241.866 140.851C248.082 140.851 248.814 148.164 248.814 148.164M251.373 147.067C251.373 147.067 249.757 137.925 241.866 137.925C233.975 137.925 232.358 147.067 232.358 147.067M229.799 146.701C229.799 146.701 230.896 135 241.866 135C252.836 135 253.933 146.701 253.933 146.701" stroke="#C9AC7C" stroke-width="1.46269"/>
<path d="M266 158.769C266 158.769 263.806 147.067 253.933 147.067C244.06 147.067 241.866 158.769 241.866 158.769C241.866 158.769 240.037 147.067 229.799 147.067C219.56 147.067 217 158.769 217 158.769M263.075 158.769C263.075 158.769 260.881 149.993 253.933 149.993C246.985 149.993 244.791 158.769 244.791 158.769M238.94 158.769C238.94 158.769 237.456 149.993 229.799 149.993C222.141 149.993 220.657 158.769 220.657 158.769M223.582 158.769C223.582 158.769 224.313 152.918 229.799 152.918C235.284 152.918 236.381 158.769 236.381 158.769M232.724 158.769C232.724 158.769 231.993 156.209 229.433 156.209C226.873 156.209 226.507 158.769 226.507 158.769H247.716C247.716 158.769 248.652 152.918 253.933 152.918C259.214 152.918 260.515 158.769 260.515 158.769H256.858C256.858 158.769 256.493 156.209 253.933 156.209C251.373 156.209 251.007 158.769 251.007 158.769" stroke="#C9AC7C" stroke-width="1.46269"/>
<circle cx="241.866" cy="147.798" r="3.65672" stroke="#C9AC7C" stroke-width="1.46269"/>
<path d="M542.918 62.6046C542.918 62.6046 543.649 69.9181 549.866 69.9181C556.082 69.9181 556.814 62.6046 556.814 62.6046M559.373 63.7016C559.373 63.7016 557.757 72.8434 549.866 72.8434C541.975 72.8434 540.358 63.7016 540.358 63.7016M537.799 64.0673C537.799 64.0673 538.896 75.7688 549.866 75.7688C560.836 75.7688 561.933 64.0673 561.933 64.0673" stroke="#C9AC7C" stroke-width="1.46269"/>
<path d="M574 52.0002C574 52.0002 571.806 63.7017 561.933 63.7017C552.06 63.7017 549.866 52.0002 549.866 52.0002C549.866 52.0002 548.037 63.7017 537.799 63.7017C527.56 63.7017 525 52.0002 525 52.0002M571.075 52.0002C571.075 52.0002 568.881 60.7762 561.933 60.7762C554.985 60.7762 552.791 52.0002 552.791 52.0002M546.94 52.0002C546.94 52.0002 545.456 60.7762 537.799 60.7762C530.141 60.7763 528.657 52.0002 528.657 52.0002M531.582 52.0002C531.582 52.0002 532.313 57.8509 537.799 57.8509C543.284 57.8508 544.381 52.0002 544.381 52.0002M540.724 52.0002C540.724 52.0002 539.993 54.5599 537.433 54.5599C534.873 54.5599 534.507 52.0002 534.507 52.0002H555.716C555.716 52.0002 556.652 57.8508 561.933 57.8509C567.214 57.8509 568.515 52.0002 568.515 52.0002H564.858C564.858 52.0002 564.493 54.5598 561.933 54.5598C559.373 54.5598 559.007 52.0002 559.007 52.0002" stroke="#C9AC7C" stroke-width="1.46269"/>
<circle cx="4.38806" cy="4.38806" r="3.65672" transform="matrix(1 0 0 -1 545.478 67.3584)" stroke="#C9AC7C" stroke-width="1.46269"/>
<defs>
<filter id="filter0_i_43_167" x="250.267" y="79.2908" width="293.029" height="56.3933" filterUnits="userSpaceOnUse" color-interpolation-filters="sRGB">
<feFlood flood-opacity="0" result="BackgroundImageFix"/>
<feBlend mode="normal" in="SourceGraphic" in2="BackgroundImageFix" result="shape"/>
<feColorMatrix in="SourceAlpha" type="matrix" values="0 0 0 0 0 0 0 0 0 0 0 0 0 0 0 0 0 0 127 0" result="hardAlpha"/>
<feOffset dy="5.73585"/>
<feGaussianBlur stdDeviation="2.86792"/>
<feComposite in2="hardAlpha" operator="arithmetic" k2="-1" k3="1"/>
<feColorMatrix type="matrix" values="0 0 0 0 0 0 0 0 0 0 0 0 0 0 0 0 0 0 0.4 0"/>
<feBlend mode="normal" in2="shape" result="effect1_innerShadow_43_167"/>
</filter>
</defs>
</svg>
